{
  "accessors": [
    {
      "bufferView": 2,
      "componentType": 5126,
      "count": 10004,
      "max": [
        85.519577026367188,
        12.66816520690918,
        176.90040588378906
      ],
      "min": [
        -85.498397827148438,
        -13.879744529724121,
        0.0003009999927598983
      ],
      "type": "VEC3"
    },
    {
      "bufferView": 2,
      "byteOffset": 120048,
      "componentType": 5126,
      "count": 10004,
      "max": [
        0.99996322393417358,
        0.99999821186065674,
        0.99998998641967773
      ],
      "min": [
        -0.99996566772460938,
        -0.99993789196014404,
        -0.99999511241912842
      ],
      "type": "VEC3"
    },
    {
      "bufferView": 3,
      "componentType": 5126,
      "count": 10004,
      "max": [
        1,
        0.99988257884979248,
        0.9999738335609436,
        1
      ],
      "min": [
        -0.99999940395355225,
        -0.99999004602432251,
        -0.99995291233062744,
        -1
      ],
      "type": "VEC4"
    },
    {
      "bufferView": 1,
      "componentType": 5126,
      "count": 10004,
      "max": [
        0.49623501300811768,
        0.9989280104637146
      ],
      "min": [
        0.0024949999060481787,
        0.50404500961303711
      ],
      "type": "VEC2"
    },
    {
      "bufferView": 0,
      "componentType": 5125,
      "count": 52104,
      "max": [
        10003
      ],
      "min": [
        0
      ],
      "type": "SCALAR"
    },
    {
      "bufferView": 2,
      "byteOffset": 240096,
      "componentType": 5126,
      "count": 5343,
      "max": [
        15.643632888793945,
        13.642355918884277,
        179.11972045898438
      ],
      "min": [
        -15.646139144897461,
        -19.465560913085938,
        87.144569396972656
      ],
      "type": "VEC3"
    },
    {
      "bufferView": 2,
      "byteOffset": 304212,
      "componentType": 5126,
      "count": 5343,
      "max": [
        0.99996787309646606,
        0.99975097179412842,
        0.99974650144577026
      ],
      "min": [
        -0.99976897239685059,
        -0.99981850385665894,
        -0.99917912483215332
      ],
      "type": "VEC3"
    },
    {
      "bufferView": 3,
      "byteOffset": 160064,
      "componentType": 5126,
      "count": 5343,
      "max": [
        1,
        0.99986416101455688,
        0.99462312459945679,
        1
      ],
      "min": [
        -1,
        -0.99966490268707275,
        -0.9946286678314209,
        -1
      ],
      "type": "VEC4"
    },
    {
      "bufferView": 1,
      "byteOffset": 80032,
      "componentType": 5126,
      "count": 5343,
      "max": [
        0.99754297733306885,
        0.99942898750305176
      ],
      "min": [
        0.2508380115032196,
        0.50334101915359497
      ],
      "type": "VEC2"
    },
    {
      "bufferView": 0,
      "byteOffset": 208416,
      "componentType": 5125,
      "count": 22092,
      "max": [
        5342
      ],
      "min": [
        0
      ],
      "type": "SCALAR"
    }
  ],
  "asset": {
    "extras": {
      "author": "WitchLord (https://sketchfab.com/WitchLord)",
      "license": "CC-BY-4.0 (http://creativecommons.org/licenses/by/4.0/)",
      "source": "https://sketchfab.com/3d-models/personagen-1956006e40954c93994fe5e0c9de2ae1",
      "title": "Personagen"
    },
    "generator": "Sketchfab-4.88.0",
    "version": "2.0"
  },
  "bufferViews": [
    {
      "buffer": 0,
      "byteLength": 296784,
      "byteOffset": 0,
      "name": "floatBufferViews",
      "target": 34963
    },
    {
      "buffer": 0,
      "byteLength": 122776,
      "byteOffset": 296784,
      "byteStride": 8,
      "name": "floatBufferViews",
      "target": 34962
    },
    {
      "buffer": 0,
      "byteLength": 368328,
      "byteOffset": 419560,
      "byteStride": 12,
      "name": "floatBufferViews",
      "target": 34962
    },
    {
      "buffer": 0,
      "byteLength": 245552,
      "byteOffset": 787888,
      "byteStride": 16,
      "name": "floatBufferViews",
      "target": 34962
    }
  ],
  "buffers": [
    {
      "byteLength": 1033440,
      "uri": "scene.bin"
    }
  ],
  "images": [
    {
      "uri": "textures/PackedMaterial0_baseColor.png"
    }
  ],
  "materials": [
    {
      "doubleSided": true,
      "name": "PackedMaterial0",
      "pbrMetallicRoughness": {
        "baseColorFactor": [
          1,
          1,
          1,
          1
        ],
        "baseColorTexture": {
          "index": 0,
          "texCoord": 0
        },
        "metallicFactor": 0,
        "roughnessFactor": 0.59999999999999998
      }
    }
  ],
  "meshes": [
    {
      "primitives": [
        {
          "attributes": {
            "NORMAL": 1,
            "POSITION": 0,
            "TANGENT": 2,
            "TEXCOORD_0": 3
          },
          "indices": 4,
          "material": 0,
          "mode": 4
        }
      ]
    },
    {
      "primitives": [
        {
          "attributes": {
            "NORMAL": 6,
            "POSITION": 5,
            "TANGENT": 7,
            "TEXCOORD_0": 8
          },
          "indices": 9,
          "material": 0,
          "mode": 4
        }
      ]
    }
  ],
  "nodes": [
    {
      "children": [
        1
      ],
      "name": "RootNode (gltf orientation matrix)",
      "rotation": [
        -0.70710678118654746,
        -0,
        -0,
        0.70710678118654757
      ]
    },
    {
      "children": [
        2
      ],
      "name": "RootNode (model correction matrix)"
    },
    {
      "children": [
        3,
        4
      ],
      "name": "personagen.obj.cleaner.materialmerger.gles"
    },
    {
      "mesh": 0,
      "name": ""
    },
    {
      "mesh": 1,
      "name": ""
    }
  ],
  "samplers": [
    {
      "magFilter": 9729,
      "minFilter": 9987,
      "wrapS": 10497,
      "wrapT": 10497
    }
  ],
  "scene": 0,
  "scenes": [
    {
      "name": "OSG_Scene",
      "nodes": [
        0
      ]
    }
  ],
  "textures": [
    {
      "sampler": 0,
      "source": 0
    }
  ]
}

