{
    "asset" : {
        "generator" : "Khronos glTF Blender I/O v1.7.33",
        "version" : "2.0"
    },
    "scene" : 0,
    "scenes" : [
        {
            "name" : "Scene",
            "nodes" : [
                3
            ]
        }
    ],
    "nodes" : [
        {
            "name" : "Bone002",
            "rotation" : [
                8.407790785948902e-45,
                -4.702613110634075e-30,
                -8.881784197001252e-16,
                1
            ],
            "translation" : [
                21.0009708404541,
                -8.025250928210548e-14,
                -8.077935669463161e-28
            ]
        },
        {
            "children" : [
                0
            ],
            "name" : "Bone001",
            "rotation" : [
                -0.5,
                0.5,
                0.5,
                0.5
            ]
        },
        {
            "mesh" : 0,
            "name" : "Box001",
            "skin" : 0
        },
        {
            "children" : [
                2,
                1
            ],
            "name" : "Armature",
            "rotation" : [
                0.7071068286895752,
                0,
                0,
                0.7071067094802856
            ],
            "scale" : [
                0.02539999969303608,
                0.02539999969303608,
                0.02539999969303608
            ]
        }
    ],
    "animations" : [
        {
            "channels" : [
                {
                    "sampler" : 0,
                    "target" : {
                        "node" : 1,
                        "path" : "translation"
                    }
                },
                {
                    "sampler" : 1,
                    "target" : {
                        "node" : 1,
                        "path" : "rotation"
                    }
                },
                {
                    "sampler" : 2,
                    "target" : {
                        "node" : 1,
                        "path" : "scale"
                    }
                }
            ],
            "name" : "Armature|Take 001|BaseLayer",
            "samplers" : [
                {
                    "input" : 7,
                    "interpolation" : "LINEAR",
                    "output" : 8
                },
                {
                    "input" : 9,
                    "interpolation" : "LINEAR",
                    "output" : 10
                },
                {
                    "input" : 7,
                    "interpolation" : "LINEAR",
                    "output" : 11
                }
            ]
        }
    ],
    "materials" : [
        {
            "doubleSided" : true,
            "name" : "Material #47",
            "pbrMetallicRoughness" : {
                "baseColorTexture" : {
                    "index" : 0
                },
                "roughnessFactor" : 0.858578622341156
            }
        }
    ],
    "meshes" : [
        {
            "name" : "Mesh",
            "primitives" : [
                {
                    "attributes" : {
                        "POSITION" : 0,
                        "NORMAL" : 1,
                        "TEXCOORD_0" : 2,
                        "JOINTS_0" : 3,
                        "WEIGHTS_0" : 4
                    },
                    "indices" : 5,
                    "material" : 0
                }
            ]
        }
    ],
    "textures" : [
        {
            "sampler" : 0,
            "source" : 0
        }
    ],
    "images" : [
        {
            "mimeType" : "image/jpeg",
            "name" : "teste",
            "uri" : "teste.jpg"
        }
    ],
    "skins" : [
        {
            "inverseBindMatrices" : 6,
            "joints" : [
                1,
                0
            ],
            "name" : "Armature"
        }
    ],
    "accessors" : [
        {
            "bufferView" : 0,
            "componentType" : 5126,
            "count" : 5806,
            "max" : [
                1.80185067653656,
                2.058547258377075,
                0.6810092926025391
            ],
            "min" : [
                -1.801850438117981,
                -1.1095046659193031e-07,
                -0.6810091137886047
            ],
            "type" : "VEC3"
        },
        {
            "bufferView" : 1,
            "componentType" : 5126,
            "count" : 5806,
            "type" : "VEC3"
        },
        {
            "bufferView" : 2,
            "componentType" : 5126,
            "count" : 5806,
            "type" : "VEC2"
        },
        {
            "bufferView" : 3,
            "componentType" : 5121,
            "count" : 5806,
            "type" : "VEC4"
        },
        {
            "bufferView" : 4,
            "componentType" : 5126,
            "count" : 5806,
            "type" : "VEC4"
        },
        {
            "bufferView" : 5,
            "componentType" : 5123,
            "count" : 16764,
            "type" : "SCALAR"
        },
        {
            "bufferView" : 6,
            "componentType" : 5126,
            "count" : 2,
            "type" : "MAT4"
        },
        {
            "bufferView" : 7,
            "componentType" : 5126,
            "count" : 2,
            "max" : [
                10.033333333333333
            ],
            "min" : [
                0.03333333333333333
            ],
            "type" : "SCALAR"
        },
        {
            "bufferView" : 8,
            "componentType" : 5126,
            "count" : 2,
            "type" : "VEC3"
        },
        {
            "bufferView" : 9,
            "componentType" : 5126,
            "count" : 301,
            "max" : [
                10.033333333333333
            ],
            "min" : [
                0.03333333333333333
            ],
            "type" : "SCALAR"
        },
        {
            "bufferView" : 10,
            "componentType" : 5126,
            "count" : 301,
            "type" : "VEC4"
        },
        {
            "bufferView" : 11,
            "componentType" : 5126,
            "count" : 2,
            "type" : "VEC3"
        }
    ],
    "bufferViews" : [
        {
            "buffer" : 0,
            "byteLength" : 69672,
            "byteOffset" : 0
        },
        {
            "buffer" : 0,
            "byteLength" : 69672,
            "byteOffset" : 69672
        },
        {
            "buffer" : 0,
            "byteLength" : 46448,
            "byteOffset" : 139344
        },
        {
            "buffer" : 0,
            "byteLength" : 23224,
            "byteOffset" : 185792
        },
        {
            "buffer" : 0,
            "byteLength" : 92896,
            "byteOffset" : 209016
        },
        {
            "buffer" : 0,
            "byteLength" : 33528,
            "byteOffset" : 301912
        },
        {
            "buffer" : 0,
            "byteLength" : 128,
            "byteOffset" : 335440
        },
        {
            "buffer" : 0,
            "byteLength" : 8,
            "byteOffset" : 335568
        },
        {
            "buffer" : 0,
            "byteLength" : 24,
            "byteOffset" : 335576
        },
        {
            "buffer" : 0,
            "byteLength" : 1204,
            "byteOffset" : 335600
        },
        {
            "buffer" : 0,
            "byteLength" : 4816,
            "byteOffset" : 336804
        },
        {
            "buffer" : 0,
            "byteLength" : 24,
            "byteOffset" : 341620
        }
    ],
    "samplers" : [
        {
            "magFilter" : 9729,
            "minFilter" : 9987
        }
    ],
    "buffers" : [
        {
            "byteLength" : 341644,
            "uri" : "Teste.bin"
        }
    ]
}
